<svg xmlns="http://www.w3.org/2000/svg" width="512" height="512" fill="none" viewBox="0 0 512 512"><rect width="512" height="512" fill="#0f172a" rx="96"/><path fill="#863bff" d="M277.2 470.3c-7.7 9.8-23.4 4.4-23.4-8.1V357.1c0-14.4-11.7-26.1-26.1-26.1H116.2c-10.6 0-16.8-12-10.6-20.7l86.5-121.1c12.3-17.3 0-41.4-21.3-41.4H11.5C.9 147.7-5.3 135.7.9 127l89.9-125.9C93.3-2.6 97.3-4.3 101.6-4.3H435c10.6 0 16.8 12 10.6 20.7l-86.5 121.1c-12.3 17.3 0 41.4 21.3 41.4h131.6c10.9 0 17 12.6 10.3 21.2L277.2 470.3z"/><mask id="a" maskUnits="userSpaceOnUse"><path fill="#000" d="M277.2 470.3c-7.7 9.8-23.4 4.4-23.4-8.1V357.1c0-14.4-11.7-26.1-26.1-26.1H116.2c-10.6 0-16.8-12-10.6-20.7l86.5-121.1c12.3-17.3 0-41.4-21.3-41.4H11.5C.9 147.7-5.3 135.7.9 127l89.9-125.9C93.3-2.6 97.3-4.3 101.6-4.3H435c10.6 0 16.8 12 10.6 20.7l-86.5 121.1c-12.3 17.3 0 41.4 21.3 41.4h131.6c10.9 0 17 12.6 10.3 21.2L277.2 470.3z"/></mask><g mask="url(#a)"><g filter="url(#b)"><ellipse cx="5.508" cy="14.704" fill="#ede6ff" rx="5.508" ry="14.704" transform="matrix(.00324 1 1 -.00324 86.3 363.5)"/></g><g filter="url(#c)"><ellipse cx="10.399" cy="29.851" fill="#ede6ff" rx="10.399" ry="29.851" transform="matrix(.00324 1 1 -.00324 -156.8 87.3)"/></g><g filter="url(#d)"><ellipse cx="5.508" cy="30.487" fill="#7e14ff" rx="5.508" ry="30.487" transform="rotate(89.814 -152.9 -4.6)scale(1 -1)"/></g><g filter="url(#e)"><ellipse cx="5.508" cy="30.599" fill="#7e14ff" rx="5.508" ry="30.599" transform="rotate(89.814 -210.8 44.3)scale(1 -1)"/></g></g></svg>